<mxfile host="65bd71144e">
    <diagram id="GBh474QnY8XcTHKeoDQy" name="Page-1">
        <mxGraphModel dx="512" dy="315" grid="1" gridSize="10" guides="1" tooltips="1" connect="1" arrows="1" fold="1" page="1" pageScale="1" pageWidth="850" pageHeight="1100" background="#FFFFFF" math="0" shadow="0">
            <root>
                <mxCell id="0"/>
                <mxCell id="1" parent="0"/>
                <mxCell id="4" value="" style="rounded=0;whiteSpace=wrap;html=1;" parent="1" vertex="1">
                    <mxGeometry x="220" y="150" width="410" height="240" as="geometry"/>
                </mxCell>
                <mxCell id="6" value="" style="whiteSpace=wrap;html=1;aspect=fixed;" parent="1" vertex="1">
                    <mxGeometry x="430" y="180" width="190" height="190" as="geometry"/>
                </mxCell>
                <mxCell id="9" value="&lt;font style=&quot;font-size: 18px;&quot;&gt;Last 30 days&lt;/font&gt;" style="text;strokeColor=none;fillColor=none;html=1;fontSize=24;fontStyle=1;verticalAlign=middle;align=center;" parent="1" vertex="1">
                    <mxGeometry x="475" y="180" width="100" height="40" as="geometry"/>
                </mxCell>
                <mxCell id="10" value="" style="endArrow=none;html=1;entryX=0.579;entryY=0.579;entryDx=0;entryDy=0;entryPerimeter=0;" parent="1" edge="1">
                    <mxGeometry width="50" height="50" relative="1" as="geometry">
                        <mxPoint x="460" y="309.99" as="sourcePoint"/>
                        <mxPoint x="530.01" y="300" as="targetPoint"/>
                    </mxGeometry>
                </mxCell>
                <mxCell id="11" value="" style="endArrow=none;html=1;" parent="1" edge="1">
                    <mxGeometry width="50" height="50" relative="1" as="geometry">
                        <mxPoint x="530" y="300" as="sourcePoint"/>
                        <mxPoint x="580" y="250" as="targetPoint"/>
                    </mxGeometry>
                </mxCell>
                <mxCell id="12" value="" style="endArrow=none;html=1;entryX=0.947;entryY=0.684;entryDx=0;entryDy=0;entryPerimeter=0;" parent="1" target="6" edge="1">
                    <mxGeometry width="50" height="50" relative="1" as="geometry">
                        <mxPoint x="580" y="250" as="sourcePoint"/>
                        <mxPoint x="680" y="360" as="targetPoint"/>
                    </mxGeometry>
                </mxCell>
                <mxCell id="13" value="&lt;font size=&quot;3&quot;&gt;&lt;b&gt;Reviews&lt;/b&gt;&lt;/font&gt;" style="rounded=0;whiteSpace=wrap;html=1;" parent="1" vertex="1">
                    <mxGeometry x="240" y="280" width="180" height="40" as="geometry"/>
                </mxCell>
                <mxCell id="14" value="&lt;font size=&quot;3&quot;&gt;&lt;b&gt;Certifications&lt;/b&gt;&lt;/font&gt;" style="rounded=0;whiteSpace=wrap;html=1;" parent="1" vertex="1">
                    <mxGeometry x="240" y="230" width="180" height="40" as="geometry"/>
                </mxCell>
                <mxCell id="15" value="&lt;font size=&quot;3&quot;&gt;&lt;b&gt;Performance Stats&lt;/b&gt;&lt;/font&gt;" style="rounded=0;whiteSpace=wrap;html=1;" parent="1" vertex="1">
                    <mxGeometry x="240" y="180" width="180" height="40" as="geometry"/>
                </mxCell>
                <mxCell id="17" value="Dashboard" style="text;strokeColor=none;fillColor=none;html=1;fontSize=24;fontStyle=1;verticalAlign=middle;align=center;" parent="1" vertex="1">
                    <mxGeometry x="230" y="100" width="100" height="40" as="geometry"/>
                </mxCell>
                <mxCell id="18" value="&lt;font size=&quot;3&quot;&gt;&lt;b&gt;My Availability&lt;/b&gt;&lt;/font&gt;" style="rounded=0;whiteSpace=wrap;html=1;" parent="1" vertex="1">
                    <mxGeometry x="240" y="330" width="180" height="40" as="geometry"/>
                </mxCell>
                <mxCell id="19" value="My Availability" style="swimlane;childLayout=stackLayout;resizeParent=1;resizeParentMax=0;horizontal=1;startSize=20;horizontalStack=0;html=1;" parent="1" vertex="1">
                    <mxGeometry x="660" y="130" width="380" height="370" as="geometry">
                        <mxRectangle x="670" y="120" width="120" height="30" as="alternateBounds"/>
                    </mxGeometry>
                </mxCell>
                <mxCell id="20" value="Monday" style="swimlane;startSize=20;horizontal=0;html=1;" parent="19" vertex="1">
                    <mxGeometry y="20" width="380" height="120" as="geometry">
                        <mxRectangle y="20" width="480" height="30" as="alternateBounds"/>
                    </mxGeometry>
                </mxCell>
                <mxCell id="24" value="Block 1" style="rounded=0;whiteSpace=wrap;html=1;" parent="20" vertex="1">
                    <mxGeometry x="30" y="20" width="110" height="90" as="geometry"/>
                </mxCell>
                <mxCell id="25" value="Block 2" style="rounded=0;whiteSpace=wrap;html=1;" parent="20" vertex="1">
                    <mxGeometry x="210" y="20" width="110" height="90" as="geometry"/>
                </mxCell>
                <mxCell id="29" value="Add Availability" style="rounded=0;whiteSpace=wrap;html=1;" parent="20" vertex="1">
                    <mxGeometry x="270" y="-10" width="110" height="20" as="geometry"/>
                </mxCell>
                <mxCell id="21" value="Tuesday" style="swimlane;startSize=20;horizontal=0;html=1;" parent="19" vertex="1">
                    <mxGeometry y="140" width="380" height="120" as="geometry"/>
                </mxCell>
                <mxCell id="26" value="Block 3" style="rounded=0;whiteSpace=wrap;html=1;" parent="21" vertex="1">
                    <mxGeometry x="70" y="20" width="80" height="90" as="geometry"/>
                </mxCell>
                <mxCell id="30" value="Block 4" style="rounded=0;whiteSpace=wrap;html=1;" parent="21" vertex="1">
                    <mxGeometry x="160" y="20" width="80" height="90" as="geometry"/>
                </mxCell>
                <mxCell id="22" value="Wednesday" style="swimlane;startSize=20;horizontal=0;html=1;" parent="19" vertex="1">
                    <mxGeometry y="260" width="380" height="110" as="geometry"/>
                </mxCell>
                <mxCell id="27" value="My Availability" style="text;strokeColor=none;fillColor=none;html=1;fontSize=24;fontStyle=1;verticalAlign=middle;align=center;" parent="1" vertex="1">
                    <mxGeometry x="690" y="100" width="100" height="40" as="geometry"/>
                </mxCell>
                <mxCell id="31" value="Submit form" style="swimlane;" parent="1" vertex="1">
                    <mxGeometry x="840" y="507.5" width="300" height="330" as="geometry">
                        <mxRectangle x="930" y="540" width="110" height="30" as="alternateBounds"/>
                    </mxGeometry>
                </mxCell>
                <mxCell id="37" value="Days of the week" style="rounded=0;whiteSpace=wrap;html=1;" parent="31" vertex="1">
                    <mxGeometry x="90" y="40" width="120" height="30" as="geometry"/>
                </mxCell>
                <mxCell id="36" value="Duration per slot" style="rounded=0;whiteSpace=wrap;html=1;" parent="31" vertex="1">
                    <mxGeometry x="90" y="160" width="120" height="30" as="geometry"/>
                </mxCell>
                <mxCell id="35" value="Repeat weekly" style="rounded=0;whiteSpace=wrap;html=1;" parent="31" vertex="1">
                    <mxGeometry x="90" y="200" width="120" height="30" as="geometry"/>
                </mxCell>
                <mxCell id="34" value="Services" style="rounded=0;whiteSpace=wrap;html=1;" parent="31" vertex="1">
                    <mxGeometry x="90" y="120" width="120" height="30" as="geometry"/>
                </mxCell>
                <mxCell id="33" value="Start time : End time" style="rounded=0;whiteSpace=wrap;html=1;" parent="31" vertex="1">
                    <mxGeometry x="90" y="80" width="120" height="30" as="geometry"/>
                </mxCell>
                <mxCell id="38" value="Save" style="rounded=0;whiteSpace=wrap;html=1;" parent="31" vertex="1">
                    <mxGeometry x="210" y="280" width="70" height="30" as="geometry"/>
                </mxCell>
                <mxCell id="39" value="Cancel" style="rounded=0;whiteSpace=wrap;html=1;" parent="31" vertex="1">
                    <mxGeometry x="20" y="280" width="70" height="30" as="geometry"/>
                </mxCell>
                <mxCell id="32" value="Client clicks &quot;Add Availablity&quot;" style="edgeStyle=segmentEdgeStyle;endArrow=classic;html=1;curved=0;rounded=0;endSize=8;startSize=8;exitX=1;exitY=0;exitDx=0;exitDy=0;" parent="1" source="20" edge="1">
                    <mxGeometry width="50" height="50" relative="1" as="geometry">
                        <mxPoint x="1080" y="150" as="sourcePoint"/>
                        <mxPoint x="1100" y="510" as="targetPoint"/>
                        <Array as="points">
                            <mxPoint x="1100" y="150"/>
                            <mxPoint x="1100" y="508"/>
                        </Array>
                    </mxGeometry>
                </mxCell>
                <mxCell id="40" value="Client clicks cancel" style="edgeStyle=segmentEdgeStyle;endArrow=classic;html=1;curved=0;rounded=0;endSize=8;startSize=8;entryX=0.25;entryY=1;entryDx=0;entryDy=0;exitX=0;exitY=0.5;exitDx=0;exitDy=0;" parent="1" source="39" target="22" edge="1">
                    <mxGeometry width="50" height="50" relative="1" as="geometry">
                        <mxPoint x="860" y="610" as="sourcePoint"/>
                        <mxPoint x="910" y="560" as="targetPoint"/>
                    </mxGeometry>
                </mxCell>
                <mxCell id="41" value="" style="edgeStyle=segmentEdgeStyle;endArrow=classic;html=1;curved=0;rounded=0;endSize=8;startSize=8;entryX=0;entryY=0.25;entryDx=0;entryDy=0;exitX=0.488;exitY=-0.01;exitDx=0;exitDy=0;exitPerimeter=0;" parent="1" source="4" target="20" edge="1">
                    <mxGeometry width="50" height="50" relative="1" as="geometry">
                        <mxPoint x="490" y="180" as="sourcePoint"/>
                        <mxPoint x="540" y="130" as="targetPoint"/>
                        <Array as="points">
                            <mxPoint x="420" y="130"/>
                            <mxPoint x="650" y="130"/>
                            <mxPoint x="650" y="180"/>
                        </Array>
                    </mxGeometry>
                </mxCell>
                <mxCell id="43" value="&lt;span style=&quot;color: rgb(63, 63, 63); font-size: 12px;&quot;&gt;Client choosed &quot;My Availability&quot;&lt;/span&gt;" style="edgeLabel;html=1;align=center;verticalAlign=middle;resizable=0;points=[];" parent="41" vertex="1" connectable="0">
                    <mxGeometry x="-0.1553" y="2" relative="1" as="geometry">
                        <mxPoint as="offset"/>
                    </mxGeometry>
                </mxCell>
                <mxCell id="44" value="Client selects a block" style="edgeStyle=segmentEdgeStyle;endArrow=classic;html=1;curved=0;rounded=0;endSize=8;startSize=8;" parent="1" edge="1">
                    <mxGeometry width="50" height="50" relative="1" as="geometry">
                        <mxPoint x="820" y="500" as="sourcePoint"/>
                        <mxPoint x="930" y="600" as="targetPoint"/>
                        <Array as="points">
                            <mxPoint x="820" y="600"/>
                            <mxPoint x="870" y="600"/>
                        </Array>
                    </mxGeometry>
                </mxCell>
                <mxCell id="45" value="" style="rounded=0;whiteSpace=wrap;html=1;" parent="1" vertex="1">
                    <mxGeometry x="220" y="440" width="310" height="190" as="geometry"/>
                </mxCell>
                <mxCell id="46" value="Block saved succesfully" style="text;strokeColor=none;fillColor=none;html=1;fontSize=24;fontStyle=1;verticalAlign=middle;align=center;" parent="1" vertex="1">
                    <mxGeometry x="325" y="515" width="100" height="40" as="geometry"/>
                </mxCell>
                <mxCell id="49" value="Confirmation Page" style="text;strokeColor=none;fillColor=none;html=1;fontSize=24;fontStyle=1;verticalAlign=middle;align=center;" parent="1" vertex="1">
                    <mxGeometry x="280" y="400" width="100" height="40" as="geometry"/>
                </mxCell>
                <mxCell id="50" value="Client saves a new block" style="edgeStyle=segmentEdgeStyle;endArrow=classic;html=1;curved=0;rounded=0;endSize=8;startSize=8;exitX=0.419;exitY=1.058;exitDx=0;exitDy=0;exitPerimeter=0;entryX=1;entryY=0.842;entryDx=0;entryDy=0;entryPerimeter=0;" parent="1" source="38" target="45" edge="1">
                    <mxGeometry width="50" height="50" relative="1" as="geometry">
                        <mxPoint x="1170" y="880" as="sourcePoint"/>
                        <mxPoint x="550" y="780" as="targetPoint"/>
                        <Array as="points">
                            <mxPoint x="1079" y="850"/>
                            <mxPoint x="700" y="850"/>
                            <mxPoint x="700" y="600"/>
                        </Array>
                    </mxGeometry>
                </mxCell>
                <mxCell id="51" value="Client clicks ok" style="edgeStyle=segmentEdgeStyle;endArrow=classic;html=1;curved=0;rounded=0;endSize=8;startSize=8;exitX=1;exitY=0.25;exitDx=0;exitDy=0;" parent="1" source="45" edge="1">
                    <mxGeometry x="-0.0549" width="50" height="50" relative="1" as="geometry">
                        <mxPoint x="810" y="640" as="sourcePoint"/>
                        <mxPoint x="720" y="500" as="targetPoint"/>
                        <Array as="points">
                            <mxPoint x="720" y="558"/>
                        </Array>
                        <mxPoint x="1" as="offset"/>
                    </mxGeometry>
                </mxCell>
                <mxCell id="52" value="ok" style="rounded=0;whiteSpace=wrap;html=1;" parent="1" vertex="1">
                    <mxGeometry x="450" y="590" width="65" height="25" as="geometry"/>
                </mxCell>
                <mxCell id="53" value="We are sorry, a problem has occured." style="rounded=0;whiteSpace=wrap;html=1;" parent="1" vertex="1">
                    <mxGeometry x="220" y="680" width="260" height="110" as="geometry"/>
                </mxCell>
                <mxCell id="54" value="Saving failed Page" style="text;strokeColor=none;fillColor=none;html=1;fontSize=24;fontStyle=1;verticalAlign=middle;align=center;" parent="1" vertex="1">
                    <mxGeometry x="280" y="640" width="100" height="40" as="geometry"/>
                </mxCell>
                <mxCell id="55" value="ok" style="rounded=0;whiteSpace=wrap;html=1;" parent="1" vertex="1">
                    <mxGeometry x="410" y="760" width="60" height="20" as="geometry"/>
                </mxCell>
                <mxCell id="57" value="Saving fails" style="endArrow=classic;html=1;" parent="1" edge="1">
                    <mxGeometry width="50" height="50" relative="1" as="geometry">
                        <mxPoint x="700" y="740" as="sourcePoint"/>
                        <mxPoint x="480" y="740" as="targetPoint"/>
                    </mxGeometry>
                </mxCell>
                <mxCell id="58" value="" style="endArrow=classic;html=1;exitX=1;exitY=0.5;exitDx=0;exitDy=0;" parent="1" source="55" edge="1">
                    <mxGeometry width="50" height="50" relative="1" as="geometry">
                        <mxPoint x="470" y="780" as="sourcePoint"/>
                        <mxPoint x="840" y="770" as="targetPoint"/>
                    </mxGeometry>
                </mxCell>
            </root>
        </mxGraphModel>
    </diagram>
</mxfile>